<svg width="30" height="30" viewBox="0 0 30 30" fill="none" xmlns="http://www.w3.org/2000/svg">
<path fill-rule="evenodd" clip-rule="evenodd" d="M15 30C23.2843 30 30 23.2843 30 15C30 6.71572 23.2843 0 15 0C6.71572 0 0 6.71572 0 15C0 23.2843 6.71572 30 15 30ZM16.875 9.375C16.875 8.33947 16.0356 7.5 15 7.5C13.9645 7.5 13.125 8.33947 13.125 9.375V13.125H9.375C8.33947 13.125 7.5 13.9645 7.5 15C7.5 16.0356 8.33947 16.875 9.375 16.875H13.125V20.625C13.125 21.6606 13.9645 22.5 15 22.5C16.0356 22.5 16.875 21.6606 16.875 20.625V16.875H20.625C21.6606 16.875 22.5 16.0356 22.5 15C22.5 13.9645 21.6606 13.125 20.625 13.125H16.875V9.375Z" fill="#004182"/>
</svg>
